<?xml version="1.0" encoding="UTF-8"?>
<svg height="31.79mm" viewBox="0,0,534.569,112.655" width="150.87mm" xmlns="http://www.w3.org/2000/svg">
 <metadata/>
 <g transform="matrix(.13865 0 0 .13565 257.76 -34.09)">
  <path d="m608.5 1005.9c-34.1-37.139-62.15-67.957-62.333-68.484-.2123-.61029 239.46-.95819 660.1-.95819h660.43l46.9 51.243c25.795 28.184 54.019 59.009 62.721 68.5l15.822 17.257-1321.64-.032-62-67.526zm-343.33-113.01-90.33-98.43h-21.84v89h-122v-297h122v102h34.394c36.09 0 48.603-.78884 65.106-4.1042 49.457-9.9359 78.844-36.362 86.623-77.896 1.7106-9.1334 1.4444-31.882-.4751-40.615-6.2285-28.338-21.827-45.63-51.825-57.454-6.2968-2.4819-21.984-6.481-30.823-7.8579-20.788-3.2379-26.484-3.4201-124.74-3.9905l-100.24-.58193 103.354-108.676 57.559.46643c60.096.48699 65.38.80798 94.038 5.7133 85.846 14.694 141.32 55.774 163.95 121.42 4.4301 12.848 8.2613 29.84 10.163 45.077 1.8656 14.946 1.5918 50.327-.5095 65.841-8.2666 61.032-36.629 107.07-85.585 138.91-8.6693 5.6393-27.883 15.575-38.263 19.786l-5.7627 2.338 2.8568 3.0607c1.5713 1.6834 41.692 45.586 89.158 97.561s88.356 96.638 90.868 99.25l4.5671 4.75-161.924-.1402-90.33-98.43zm-1916.2-3.09c-20.693-1.2614-47.321-7.2002-66.083-14.738-24.036-9.6572-42.272-21.777-60.937-40.499-15.216-15.263-23.677-26.967-33.301-46.068-15.38-30.527-21.736-59.534-21.728-99.168 0-20.935 1.0294-31.677 4.6993-49.229 6.8693-32.853 22.583-64.747 43.527-88.344 30.566-34.438 75.237-56.543 125.82-62.26 23.173-2.619 61.631-.74977 83.139 4.041 28.624 6.3758 55.572 19.578 75.8 37.135l4.2234 3.6656-31.223 32.834c-17.172 18.059-32.236 33.901-33.475 35.206l-2.2525 2.3712-9.6182-6.031c-10.026-6.2866-22.166-11.267-34.094-13.986-11.109-2.5325-35.596-2.227-46.877.58485-46.378 11.56-73.692 53.175-71.339 108.69 1.3294 31.365 10.606 55.848 28.167 74.34 16.56 17.438 36.11 25.828 62.549 26.845 16.85.64774 29.158-1.5799 41.413-7.4952 19.013-9.1776 30.542-22.309 36.473-41.545 3.6524-11.845 8.2685-10.585-39.877-10.884l-41.991-.26085 86.082-90.5h103.089l-.4566 40.25c-.3559 31.378-.8316 42.565-2.1581 50.75-7.2142 44.516-24.36 78.538-53.578 106.31-36.26 34.466-88.124 51.512-146 47.984zm775.71-.3836c-26.344-2.7841-54.129-10.601-75.152-21.142-53.469-26.81-88.622-75.087-99.589-136.77-2.7622-15.535-3.853-52.104-2.0329-68.158 1.6949-14.951 5.4456-32.713 9.5748-45.342 4.7595-14.556 16.808-38.689 25.213-50.5 8.6891-12.211 30.093-33.609 42.272-42.261 20.153-14.317 49.876-26.893 76-32.157 18.196-3.6663 29.112-4.6614 51-4.6492 39.482.022 70.678 6.976 101.96 22.728 54.418 27.401 88.768 75.026 100.14 138.84 4.049 22.723 3.7303 61.014-.7019 84.32-16.509 86.809-79.718 144-170.96 154.67-13.804 1.6147-44.335 1.8387-57.726.42347zm49.29-95.55c32.043-6.5916 56.708-28.599 67.866-60.553 10.604-30.37 8.9011-68.575-4.2997-96.443-10.161-21.45-24.38-35.79-45.126-45.512-13.47-6.3121-23.312-8.2667-41.44-8.2298-13.467.0274-16.77.37188-25.182 2.6263-38.83 10.406-64.221 42.182-69.715 87.245-8.7609 71.855 35.155 125.88 99.897 122.89 5.775-.26643 13.875-1.1787 18-2.0273zm304.33 95.538c-34.998-4.078-68.783-18.066-92.662-38.365-7.9585-6.7655-19.864-20.354-19.449-22.199.4841-2.1506 64.071-68.459 64.849-67.625.4019.43117 3.47 4.2557 6.8181 8.4989 7.9634 10.093 17.498 17.872 28.619 23.35 13.568 6.6834 19.39 7.9309 37 7.928 12.889-.002 16.041-.3288 22.398-2.3212 15.436-4.8381 21.922-11.988 22.872-25.209.3793-5.284.036-7.5454-1.7917-11.794-4.5542-10.587-15.548-16.709-52.305-29.131-38.185-12.904-56.074-20.918-75.41-33.781-9.8949-6.5824-23.371-18.951-29.919-27.461-13.957-18.138-21.33-41.509-21.339-67.639-.01-29.143 10.183-54.124 30.496-74.734 27.119-27.517 62.808-40.467 111.61-40.5 40.038-.027 68.119 7.5488 95.771 25.837 9.0647 5.9951 28.385 23.821 27.909 25.75-.1606.65117-14.635 16.267-32.166 34.702l-31.874 33.518-10.126-10.188c-7.6407-7.6868-11.845-11.055-17.126-13.721-10.581-5.3414-15.307-6.3208-30.5-6.3208-15.084 0-19.113 1.1481-26.36 7.511-7.1727 6.2977-10.279 17.063-7.6423 26.482 2.8747 10.267 13.125 16.365 50.271 29.904 26.966 9.8283 40.055 15.223 54.676 22.535 41.986 20.998 62.801 43.301 71.813 76.949 2.3231 8.6735 2.5786 11.437 2.5989 28.119.021 16.923-.2038 19.339-2.6317 28.337-13.811 51.188-59.707 84.581-125.94 91.629-11.224 1.1945-39.984 1.1591-50.464-.062zm268.67-150.17v-151.74h-84v-90h337.22l-10.359 10.816c-5.6976 5.949-24.974 26.199-42.837 45l-32.478 34.184h-60.544l-.074 191.5-49.501 52c-27.226 28.6-51.284 53.793-53.463 55.985l-3.9619 3.9853v-151.74zm1211.5 150.14c-30.187-2.3132-60.834-10.539-85.785-23.024-19.527-9.771-35.189-21.369-50.99-37.757-27.543-28.568-44.192-63.87-50.374-106.81-2.3329-16.204-2.3297-47.651.01-63.738 12.633-86.994 70.831-147.36 159.11-165.04 17.951-3.5947 29.691-4.5869 54.075-4.5701 42.511.0293 76.048 5.6738 108.16 18.204 5.6287 2.1964 10.466 4.3686 10.749 4.8273.2835.45869-8.9894 20.624-20.606 44.812l-21.122 43.978-6.1277-2.7716c-33.852-15.312-75.505-19.169-107-9.9084-17.885 5.2589-36.506 17.515-47.013 30.944-15.759 20.141-22.924 42.66-22.898 71.973.021 23.44 4.7631 41.616 15.346 58.812 23.417 38.051 70.797 54.587 124.89 43.587 12.148-2.4705 31.017-9.2476 42.197-15.155.6221-.32874 28.852 84.458 28.852 86.655 0 2.6877-24.034 12.34-42.729 17.16-28.919 7.4565-58.943 10.102-88.74 7.8185zm295.13-.34533c-51.964-6.5715-93.947-26.94-125-60.644-24.767-26.882-40.461-60.823-47.342-102.39-2.5431-15.362-2.5805-56.158-.066-72 14.534-91.575 76.946-151.68 170.28-163.99 15.862-2.0923 48.017-2.0946 63.96-.005 77.014 10.095 133.49 52.19 159.82 119.12 18.589 47.257 18.985 111.01.9905 159.37-24.245 65.17-79.063 107.92-153.31 119.55-14.418 2.2591-54.718 2.8291-69.335.98061zm42.8-93.63c43.301-5.3064 72.345-32.917 82.15-78.095 2.8395-13.084 2.5803-41.927-.5014-55.796-8.8126-39.661-32.912-66.088-69.098-75.772-8.2253-2.2012-11.701-2.5638-25.05-2.6132-18.474-.0684-28.096 1.9175-42.44 8.76-28.633 13.658-46.456 39.592-52.664 76.625-1.7816 10.629-1.571 34.558.4007 45.516 8.9908 49.966 44.231 80.936 93.703 82.35 2.475.0707 8.55-.36771 13.5-.97432zm-2723.5-105.89v-194h106v149h137v-149h107.005l-.2526 193.75-.2525 193.75h-106l-.5128-148.5h-136.988v149h-106v-194zm1922 0v-194h281v91h-175v56h139v85.986l-138.5.51369-.264 31.75-.2641 31.75h175.028v91h-281v-194zm1017 0v-194h103.774l153.726 232.24.2542-116.12.2541-116.12h98.992v388h-103.724l-76.888-116.48c-42.288-64.065-77.226-116.49-77.638-116.5-.4125-.01-.75 52.408-.75 116.48v116.5h-98v-194zm-3062-352v-41h-57v-29h143v29h-57v82h-29zm119.7 39.558c-9.0231-3.2186-16.285-10.797-18.71-19.523-.5726-2.061-.9843-21.577-.9875-46.814l-.01-43.28 121.5.55938 5.7388 2.8181c3.3861 1.6627 7.173 4.5682 9.2369 7.0869 6.3211 7.7142 6.5243 9.1472 6.5243 46.024v33.178l-2.5839 5.1852c-3.3318 6.6861-10.282 12.793-16.744 14.712-7.0612 2.097-98.11 2.1434-103.97.053zm92.716-28.165c1.3833-.53082 1.5818-3.7057 1.5818-25.3 0-17.872-.3315-25.024-1.2-25.893-.8946-.89459-11.711-1.2-42.5-1.2h-41.3v25.3c0 18.344.3299 25.63 1.2 26.5.893.89305 11.36 1.2 40.918 1.2 21.845 0 40.43-.27314 41.3-.60699zm44.582-25.893v-55.5l31.5.014 26 41.468c14.3 22.807 26.225 41.477 26.5 41.488.275.0112 12.2-18.636 26.5-41.437l26-41.458 15.75-.0371 15.75-.0379v111h-28.97l-.5298-59.348-37.012 58.848h-34.819l-37.67-59.838v60.338h-29v-55.5zm240.7 54.056c-5.4496-1.9438-11.14-6.1424-14.077-10.386-5.5403-8.0066-5.6213-8.8102-5.6213-55.795v-43.374h71.5c67.42 0 71.501.0999 71.523 1.75.013.9625-.7496 7.4875-1.6936 14.5l-1.7162 12.75h-110.612v25.3c0 18.344.3299 25.63 1.2 26.5.9038.90376 14.555 1.2 55.298 1.2h54.098l2.0033 14.5 2.0032 14.5-60.051-.0439c-47.924-.035-60.819-.31775-63.853-1.4zm137.3-54.06v-55.5h29v82h34c18.7 0 34 .29676 34 .65947s-3.8696 6.8877-8.5991 14.5l-8.5991 13.841h-79.802v-55.5zm88 54.937c0-1.0168 57.275-89.824 61.022-94.618 4.9241-6.2991 8.6888-9.3283 15.64-12.585l5.8375-2.7347 68.5-.64031v111.14h-29v-29h-68.854l-1.8226 2.4065c-1.0024 1.3236-5.3178 7.8486-9.5897 14.5l-7.767 12.093h-16.983c-9.3406 0-16.983-.25332-16.983-.56294zm122-69.437v-12h-16.066c-16.163 0-19.018.51559-21.675 3.9133-1.8036 2.3071-12.26 19.022-12.26 19.598 0 .26859 11.25.48835 25 .48835h25v-12zm46 14.5v-55.5h28.666l42.417 35.991c23.329 19.795 42.754 35.995 43.167 36 .4125.005.75-16.204.75-36.019v-36.027l14.25.27745 14.25.27746.2585 55.25.2584 55.25-29.516-.0476-85-72.2-.2625 36.124-.2624 36.124h-28.976v-55.5zm179.7 54.058c-9.0231-3.2186-16.285-10.797-18.71-19.523-.5725-2.0608-.9843-21.567-.9875-46.785l-.006-43.25h71.5c67.42 0 71.501.0999 71.523 1.75.013.9625-.7496 7.4875-1.6936 14.5l-1.7162 12.75h-110.612v25.378c0 20.009.2839 25.613 1.3419 26.491.9406.78059 17.461 1.1911 55.235 1.3724l53.893.25876 1.6903 11.5c.9297 6.325 1.7239 12.738 1.7649 14.25l.074 2.75-59.75-.0439c-47.636-.035-60.52-.31852-63.547-1.3984zm194.28-19.808-.013-21.25-25.576-30.5c-14.067-16.775-26.924-32.188-28.571-34.25l-2.995-3.75h37.724l15.472 18.572c8.5098 10.214 16.182 19.483 17.049 20.596 1.5187 1.9497 2.208 1.2678 18.771-18.572l17.194-20.596h18.479c10.164 0 18.479.24614 18.479.54698s-12.825 15.875-28.5 34.61l-28.5 34.063v41.78h-29l-.013-21.25zm146.04 20.53c.013-.42907.9023-6.6301 1.977-13.78 1.0747-7.15 1.9644-13.334 1.977-13.741.013-.40764 23.76-.85764 52.773-1l52.75-.25884v-10l-45.5-.5c-44.835-.49269-45.573-.53361-50.5-2.7994-5.9501-2.7363-11.848-8.1835-14.835-13.701-1.9464-3.5956-2.1653-5.5166-2.1653-19 0-14.512.088-15.15 2.7118-19.613 2.9367-4.9954 7.9217-9.815 13.052-12.618 2.98-1.6285 8.1309-1.7908 64.986-2.048 42.104-.19041 61.75.0503 61.75.75658 0 1.1042-2.6005 19.342-3.5311 24.764l-.5563 3.2415-109.412.51704-.3049 4.7539c-.2781 4.3352-.074 4.8416 2.3151 5.75 1.5949.6064 19.733.99614 46.359.99614h43.738l5.1852 2.5839c6.3593 3.169 12.53 9.9796 14.632 16.15 2.1402 6.2812 2.1527 25.215.021 31.472-1.9763 5.8002-7.3032 12.039-13.28 15.552l-4.666 2.743-59.75.28013c-32.862.15408-59.74-.0709-59.727-.5zm-54.02-86.86v-9.572l5.6994-6.928 5.6995-6.928h18.956c17.957 0 18.877.0922 17.458 1.75-.8235.9625-7.0121 8.3875-13.752 16.5l-12.255 14.75h-21.804v-9.572z" fill="#040404"/>
  <path d="m609.06 1006c-34.13-37.11-62.06-67.99-62.06-67.99 0-.278 297.11-.4793 660.25-.44732l660.25.0581 58.5 63.958c32.175 35.177 60.021 65.751 61.88 67.942l3.3795 3.9839h-1320.14l-62.057-67.494z" fill="#df9d26"/>
  <path d="m1801 1049.76c-3.575-.721-8.997-2.2522-12.049-3.4026-5.4766-2.0644-15.526-7.8672-14.817-8.5552.6378-.6184 12.312-9.1098 13.602-9.8931.6971-.4235 3.0952.3268 5.5 1.7208 9.0342 5.2368 23.284 7.5654 34.608 5.6553 11.569-1.9513 17.502-7.7968 13.741-13.538-2.4107-3.6792-5.8664-5.0601-23.411-9.3553-8.8245-2.1603-18.661-5.1235-21.859-6.5849-13.678-6.25036-18.598-16.634-13.064-27.572 2.9524-5.8358 8.7424-10.07 17.85-13.053 6.4925-2.1264 9.1777-2.4177 21.9-2.3758 15.785.052 23.1 1.4433 32.429 6.1682 10.706 5.4223 10.569 4.8009 2.4074 10.907-3.9531 2.9575-7.2829 5.3773-7.3995 5.3773s-3.0996-1.3513-6.629-3.0029c-7.6878-3.5975-18.425-5.182-26.95-3.977-12.395 1.752-16.546 8.9869-7.7633 13.529 1.6694.86326 9.6751 3.0939 17.79 4.9571 22.456 5.15546 30.68 8.93636 36.491 16.776 3.097 4.1783 3.508 15.065.7713 20.429-3.8338 7.5149-12.91 13.072-25.813 15.806-8.4248 1.7851-28.447 1.7765-37.335-.016zm-1107.9-9.2c-11.57-37.6-23.08-75.72-23.08-76.44 0-.46995 5.0905-.85446 11.312-.85446h11.312l8.4377 30.911c4.6408 17.001 8.6628 30.695 8.9378 30.431.275-.2646 5.0375-14.062 10.583-30.662l10.083-30.181h22.568l10.568 30.73c5.8126 16.902 10.765 30.534 11.005 30.294.2401-.2401 4.3358-14.069 9.1016-30.73l8.6651-30.294 10.712-.28383c8.2034-.21736 10.711.0168 10.706 1 0 .70611-5.7729 20.184-12.821 43.284l-12.816 42h-26.608l-9.6399-28.182c-5.302-15.5-9.9071-28.45-10.234-28.776-.3266-.32656-5.0377 12.468-10.469 28.432l-9.8755 29.026h-25.444l-3.0023-9.75zm171.92-33.75v-43.5h23v87h-23zm88 0v-43.5h23v71h25c19.346 0 24.994.2827 24.976 1.25-.022 1.1007-.8227 5.1021-2.5027 12.5l-.511 2.25h-69.962v-43.5zm123-.017v-43.76l24.25.57933c26.584.63509 34.677 1.8319 45.463 6.7225 8.4944 3.8516 16.245 11.673 19.33 19.507 3.3385 8.4771 3.3789 24.363.083 32.716-4.6448 11.771-15.993 20.654-31.812 24.9-6.6035 1.7725-11.648 2.1748-32.564 2.5969l-24.75.4994v-43.76zm49.845 26.003c6.8093-2.0635 13.433-8.0445 15.852-14.315 2.1647-5.6095 2.3862-17.867.4248-23.507-1.9196-5.5198-6.3291-10.066-12.365-12.748-4.3889-1.9501-7.3633-2.4004-18.007-2.7267l-12.75-.3908v56.5l10.75-.597c5.9125-.3284 13.155-1.3259 16.095-2.2167zm100.16-25.986v-43.5h23v71h25.067c23.402 0 25.034.1163 24.557 1.75-.2807.9625-1.0446 4.5625-1.6975 8l-1.1871 6.25h-69.74v-43.5zm119.93 9.25c9.23-18.838 18.876-38.413 21.436-43.5l4.6545-9.25h24.668l5.3391 11.25c2.9365 6.1875 12.438 25.776 21.113 43.53l15.774 32.28-12.548-.2795-12.548-.2796-4.3708-9.5-4.3709-9.5-42.644-.5378-4.4656 10.001-4.4655 10.001-24.352.036 16.782-34.25zm51.1-2.3c0-.8615-12.093-27.674-12.879-28.557-.46-.51614-11.037 20.976-13.954 28.354-.1834.4637 5.7791.8431 13.25.8431 7.4708 0 13.583-.2879 13.583-.6398zm88-6.8602v-43.5h26.546l20.477 29.454c11.262 16.2 20.702 29.475 20.977 29.501s.3683-13.229.2073-29.454l-.2926-29.501h22.086v87h-27.592l-12.668-18.25c-6.9677-10.038-16.184-23.259-20.48-29.382l-7.8114-11.131.3938 29.381.3937 29.382h-22.236v-43.5zm155-.017v-43.76l24.25.57933c27.376.65402 35.098 1.8624 46.396 7.2598 12.706 6.0703 19.826 16.759 21.073 31.634 1.8931 22.581-10.319 38.477-34.566 44.992-6.4162 1.7239-11.657 2.1373-32.404 2.556l-24.75.4994v-43.76zm42.994 27.449c7.9777-1.2943 13.595-3.726 17.403-7.5344 9.9068-9.9068 9.9989-30.531.1785-39.968-5.6912-5.4689-12.787-7.4294-26.891-7.4294h-10.684v56l6.75-.01c3.7125 0 9.6723-.4816 13.244-1.0611z" fill="#040404"/>
 </g>
</svg>
