<?xml version="1.0" encoding="utf-8"?>
<!-- Generator: Adobe Illustrator 27.0.0, SVG Export Plug-In . SVG Version: 6.00 Build 0)  -->
<svg version="1.1" id="Calque_1" xmlns="http://www.w3.org/2000/svg" xmlns:xlink="http://www.w3.org/1999/xlink" x="0px" y="0px"
	 viewBox="0 0 199.8 40" style="enable-background:new 0 0 199.8 40;" xml:space="preserve">
<style type="text/css">
	.st0{fill:url(#SVGID_1_);}
	.st1{fill:url(#SVGID_00000051368911569435135420000016202764240801938305_);}
	.st2{fill:url(#SVGID_00000057853693060196351640000007769862551478304436_);}
	.st3{fill:url(#SVGID_00000049209467710843555720000017886843193275852456_);}
	.st4{fill:url(#SVGID_00000042705282094283878440000012877639931078490530_);}
	.st5{fill:url(#SVGID_00000173151133641363656640000015195682075874737039_);}
	.st6{fill:url(#SVGID_00000054975341129339702720000014069680128907364025_);}
	.st7{fill:url(#SVGID_00000111192585392772661080000011677890960688454785_);}
	.st8{fill:url(#SVGID_00000162310796232329545710000018369400770900863124_);}
	.st9{fill:url(#SVGID_00000178169407911916200950000004439209709717159091_);}
	.st10{fill:url(#SVGID_00000155865314325920123930000004136208091309889422_);}
	.st11{fill:url(#SVGID_00000090295265195984404080000007369377803378933163_);}
	.st12{fill:#EE4C7C;}
	.st13{font-family:'DS-Digital';}
	.st14{font-size:23.5597px;}
</style>
<image style="overflow:visible;" width="150" height="150" xlink:href="../../../../Graphic/Watermark.png"  transform="matrix(0.2572 0 0 0.2587 0 0.5989)">
</image>
<g>
	<g>
		<linearGradient id="SVGID_1_" gradientUnits="userSpaceOnUse" x1="107.1211" y1="20.6714" x2="107.581" y2="20.6714">
			<stop  offset="0" style="stop-color:#FFFFFF"/>
			<stop  offset="1" style="stop-color:#000000"/>
		</linearGradient>
		<path class="st0" d="M49.5,19.9v-6.6l1.7,1.6v4.6l-1.1,1L49.5,19.9z M51.2,22.1v4.6l-1.7,1.6v-6.6l0.6-0.6L51.2,22.1z M51.6,16.1
			l0-1.1h1.2l4.1,3.9l0,1.1l-1.2,0L51.6,16.1z M57.2,19.5v-4.6l1.7-1.6v6.6l-0.6,0.6L57.2,19.5z M58.9,21.7v6.6l-1.7-1.6v-4.6l1.1-1
			L58.9,21.7z"/>
		
			<linearGradient id="SVGID_00000167383523863476221060000007683438143399674504_" gradientUnits="userSpaceOnUse" x1="107.1211" y1="20.6714" x2="107.581" y2="20.6714">
			<stop  offset="0" style="stop-color:#FFFFFF"/>
			<stop  offset="1" style="stop-color:#000000"/>
		</linearGradient>
		<path style="fill:url(#SVGID_00000167383523863476221060000007683438143399674504_);" d="M61.6,19.9v-6.3l1.7,1.6v4.3l-1.1,1
			L61.6,19.9z M63.3,22.1v4.3L61.6,28v-6.3l0.6-0.6L63.3,22.1z M71.1,13.3l-1.7,1.6h-5.8L62,13.3H71.1z M71.1,28.3H62l1.7-1.6h5.8
			L71.1,28.3z M69.3,20l0.9,0.8l-0.9,0.8h-5.9l-0.8-0.8l0.8-0.8H69.3z"/>
		
			<linearGradient id="SVGID_00000007400806106228401210000013771402342256139905_" gradientUnits="userSpaceOnUse" x1="107.1211" y1="20.6714" x2="107.581" y2="20.6714">
			<stop  offset="0" style="stop-color:#FFFFFF"/>
			<stop  offset="1" style="stop-color:#000000"/>
		</linearGradient>
		<path style="fill:url(#SVGID_00000007400806106228401210000013771402342256139905_);" d="M75.5,19.5l-1.1,1l-0.6-0.6v-6.6l1.7,1.6
			V19.5z M73.8,27.5l0.8,0.8l0.9-0.8v-5.4l-1.1-1l-0.6,0.6V27.5z M82.5,22.2L77,27.5h-1.2v-1.1l5.5-5.3h1.3L82.5,22.2z M83.3,19.9
			l-0.6,0.6l-1.1-1v-4.6l1.7-1.6V19.9z"/>
		
			<linearGradient id="SVGID_00000061448173841826868080000009799512379236034184_" gradientUnits="userSpaceOnUse" x1="107.1211" y1="20.6714" x2="107.581" y2="20.6714">
			<stop  offset="0" style="stop-color:#FFFFFF"/>
			<stop  offset="1" style="stop-color:#000000"/>
		</linearGradient>
		<path style="fill:url(#SVGID_00000061448173841826868080000009799512379236034184_);" d="M87.7,19.5l-1.1,1L86,19.9v-4.7l0.8-0.8
			l0.9,0.8V19.5z M86,26.4l0.8,0.8l0.9-0.8v-4.3l-1.1-1L86,21.7V26.4z M94.3,14.1l-0.8,0.8H88l-0.8-0.8l0.8-0.8h5.5L94.3,14.1z
			 M88,28.3l-0.8-0.8l0.8-0.8h5.5l0.8,0.8l-0.8,0.8H88z M95.4,19.9l-0.6,0.6l-1.1-1v-4.3l0.8-0.8l0.8,0.8V19.9z M95.4,26.4l-0.8,0.8
			l-0.8-0.8v-4.3l1.1-1l0.6,0.6V26.4z"/>
		
			<linearGradient id="SVGID_00000119837752441213448320000014562071143466867344_" gradientUnits="userSpaceOnUse" x1="107.1211" y1="20.6714" x2="107.581" y2="20.6714">
			<stop  offset="0" style="stop-color:#FFFFFF"/>
			<stop  offset="1" style="stop-color:#000000"/>
		</linearGradient>
		<path style="fill:url(#SVGID_00000119837752441213448320000014562071143466867344_);" d="M98.1,19.9v-6.6l1.7,1.6v4.6l-1.1,1
			L98.1,19.9z M99.8,22.1v4.3L98.1,28v-6.3l0.6-0.6L99.8,22.1z M107.6,28.3h-9.1l1.7-1.6h5.8L107.6,28.3z"/>
		
			<linearGradient id="SVGID_00000029024476874795849440000010094098098631222189_" gradientUnits="userSpaceOnUse" x1="107.1211" y1="20.6714" x2="107.581" y2="20.6714">
			<stop  offset="0" style="stop-color:#FFFFFF"/>
			<stop  offset="1" style="stop-color:#000000"/>
		</linearGradient>
		<path style="fill:url(#SVGID_00000029024476874795849440000010094098098631222189_);" d="M110.3,19.9v-6.6l1.7,1.6v4.6l-1.1,1
			L110.3,19.9z M110.3,26.4l0.8,0.8l0.9-0.8v-4.3l-1.1-1l-0.6,0.6V26.4z M112.3,28.3l-0.8-0.8l0.8-0.8h5.5l0.8,0.8l-0.8,0.8H112.3z
			 M118.1,19.5v-4.6l1.7-1.6v6.6l-0.6,0.6L118.1,19.5z M119.8,26.4l-0.8,0.8l-0.8-0.8v-4.3l1.1-1l0.6,0.6V26.4z"/>
		
			<linearGradient id="SVGID_00000127727599125262127800000014458431437888564115_" gradientUnits="userSpaceOnUse" x1="107.1211" y1="20.6714" x2="107.581" y2="20.6714">
			<stop  offset="0" style="stop-color:#FFFFFF"/>
			<stop  offset="1" style="stop-color:#000000"/>
		</linearGradient>
		<path style="fill:url(#SVGID_00000127727599125262127800000014458431437888564115_);" d="M131.9,13.3l-1.7,1.6h-6.1l-1.7-1.6
			H131.9z M128.1,20.7l-0.6,0.6l-1.1-1V16l0.8-0.8l0.9,0.8V20.7z M128.1,27.5l-0.9,0.8l-0.8-0.8v-4.6l1.1-1l0.6,0.6V27.5z"/>
		
			<linearGradient id="SVGID_00000096033334881045907810000000435418825643618945_" gradientUnits="userSpaceOnUse" x1="107.1211" y1="20.6714" x2="107.581" y2="20.6714">
			<stop  offset="0" style="stop-color:#FFFFFF"/>
			<stop  offset="1" style="stop-color:#000000"/>
		</linearGradient>
		<path style="fill:url(#SVGID_00000096033334881045907810000000435418825643618945_);" d="M137.4,19.9l-0.6,0.6l-1.1-1v-5.4
			l0.8-0.8l0.9,0.8V19.9z M137.4,27.5l-0.9,0.8l-0.8-0.8v-5.4l1.1-1l0.6,0.6V27.5z"/>
		
			<linearGradient id="SVGID_00000137817249768061590090000004268494009320045454_" gradientUnits="userSpaceOnUse" x1="107.1211" y1="20.6714" x2="107.581" y2="20.6714">
			<stop  offset="0" style="stop-color:#FFFFFF"/>
			<stop  offset="1" style="stop-color:#000000"/>
		</linearGradient>
		<path style="fill:url(#SVGID_00000137817249768061590090000004268494009320045454_);" d="M142.8,19.5l-1.1,1l-0.6-0.6v-4.7
			l0.8-0.8l0.9,0.8V19.5z M141.1,26.4l0.8,0.8l0.9-0.8v-4.3l-1.1-1l-0.6,0.6V26.4z M149.4,14.1l-0.8,0.8h-5.5l-0.8-0.8l0.8-0.8h5.5
			L149.4,14.1z M143.1,28.3l-0.8-0.8l0.8-0.8h5.5l0.8,0.8l-0.8,0.8H143.1z M150.6,19.9l-0.6,0.6l-1.1-1v-4.3l0.8-0.8l0.8,0.8V19.9z
			 M150.6,26.4l-0.8,0.8l-0.8-0.8v-4.3l1.1-1l0.6,0.6V26.4z"/>
		
			<linearGradient id="SVGID_00000087400710945159204630000018322310889510668207_" gradientUnits="userSpaceOnUse" x1="107.1211" y1="20.6714" x2="107.581" y2="20.6714">
			<stop  offset="0" style="stop-color:#FFFFFF"/>
			<stop  offset="1" style="stop-color:#000000"/>
		</linearGradient>
		<path style="fill:url(#SVGID_00000087400710945159204630000018322310889510668207_);" d="M153.3,19.9v-6.6l1.7,1.6v4.6l-1.1,1
			L153.3,19.9z M155,22.1v4.6l-1.7,1.6v-6.6l0.6-0.6L155,22.1z M155.4,16.1l0-1.1h1.2l4.1,3.9l0,1.1l-1.2,0L155.4,16.1z M161.1,19.5
			v-4.6l1.7-1.6v6.6l-0.6,0.6L161.1,19.5z M162.7,21.7v6.6l-1.7-1.6v-4.6l1.1-1L162.7,21.7z"/>
		
			<linearGradient id="SVGID_00000083793658779746560240000007547955673900993460_" gradientUnits="userSpaceOnUse" x1="107.1211" y1="20.6714" x2="107.581" y2="20.6714">
			<stop  offset="0" style="stop-color:#FFFFFF"/>
			<stop  offset="1" style="stop-color:#000000"/>
		</linearGradient>
		<path style="fill:url(#SVGID_00000083793658779746560240000007547955673900993460_);" d="M180.5,13.3l-1.7,1.6h-5.5l-1.7-1.6
			H180.5z M180.5,28.3h-8.8l1.7-1.6h5.5L180.5,28.3z M179,20l0.9,0.8l-0.9,0.8h-5.9l-0.8-0.8l0.8-0.8H179z M179.1,19.5v-4.3l1.7-1.6
			v6.3l-0.6,0.6L179.1,19.5z M180.8,21.7V28l-1.7-1.6v-4.3l1.1-1L180.8,21.7z"/>
		
			<linearGradient id="SVGID_00000103229709901812384700000004345180055371649191_" gradientUnits="userSpaceOnUse" x1="107.1211" y1="20.6714" x2="107.581" y2="20.6714">
			<stop  offset="0" style="stop-color:#FFFFFF"/>
			<stop  offset="1" style="stop-color:#000000"/>
		</linearGradient>
		<path style="fill:url(#SVGID_00000103229709901812384700000004345180055371649191_);" d="M185.2,22.1v4.3l-1.7,1.6v-6.3l0.6-0.6
			L185.2,22.1z M192.6,13.3l-1.7,1.6h-5.5l-1.7-1.6H192.6z M192.6,28.3h-8.8l1.7-1.6h5.5L192.6,28.3z M191.2,20l0.9,0.8l-0.9,0.8
			h-5.9l-0.8-0.8l0.8-0.8H191.2z M191.3,19.5v-4.3l1.7-1.6v6.3l-0.6,0.6L191.3,19.5z"/>
	</g>
	<text transform="matrix(1.0541 0 0 1 48.1116 28.3045)" class="st12 st13 st14">NEvolution 32</text>
</g>
</svg>
